HIERARCHY
ROOT Hips
{
    OFFSET 0.000000 0.000000 0.000000
    CHANNELS 6 Xposition Yposition Zposition Zrotation Xrotation Yrotation
    JOINT Spine
    {
        OFFSET -0.000000 8.349382 0.000000
        CHANNELS 3 Zrotation Xrotation Yrotation
        JOINT Spine1
        {
            OFFSET -0.000000 23.269058 0.000000
            CHANNELS 3 Zrotation Xrotation Yrotation
            JOINT Neck
            {
                OFFSET -0.000000 23.173496 2.106681
                CHANNELS 3 Zrotation Xrotation Yrotation
                JOINT Head
                {
                    OFFSET -0.000000 14.255042 -2.036435
                    CHANNELS 3 Zrotation Xrotation Yrotation
                    End Site
                    {
                        OFFSET -0.000000 25.455433 0.000000
                    }
                }
            }
            JOINT LeftShoulder
            {
                OFFSET 3.917082 21.531742 0.000256
                CHANNELS 3 Zrotation Xrotation Yrotation
                JOINT LeftArm
                {
                    OFFSET 10.728225 0.000000 0.000000
                    CHANNELS 3 Zrotation Xrotation Yrotation
                    JOINT LeftForeArm
                    {
                        OFFSET 30.046112 0.000000 0.000000
                        CHANNELS 3 Zrotation Xrotation Yrotation
                        JOINT LeftHand
                        {
                            OFFSET 29.023712 0.000000 0.000000
                            CHANNELS 3 Zrotation Xrotation Yrotation
                            End Site
                            {
                                OFFSET 15.273261 0.000000 0.000000
                            }
                        }
                    }
                }
            }
            JOINT RightShoulder
            {
                OFFSET -3.920664 21.531742 0.000256
                CHANNELS 3 Zrotation Xrotation Yrotation
                JOINT RightArm
                {
                    OFFSET -10.728225 0.000000 0.000000
                    CHANNELS 3 Zrotation Xrotation Yrotation
                    JOINT RightForeArm
                    {
                        OFFSET -30.046112 0.000000 0.000000
                        CHANNELS 3 Zrotation Xrotation Yrotation
                        JOINT RightHand
                        {
                            OFFSET -29.023712 0.000000 0.000000
                            CHANNELS 3 Zrotation Xrotation Yrotation
                            End Site
                            {
                                OFFSET -15.273261 0.000000 0.000000
                            }
                        }
                    }
                }
            }
        }
    }
    JOINT LeftUpLeg
    {
        OFFSET 10.182174 0.000000 0.000000
        CHANNELS 3 Zrotation Xrotation Yrotation
        JOINT LeftLeg
        {
            OFFSET -0.000000 -49.689274 0.000000
            CHANNELS 3 Zrotation Xrotation Yrotation
            JOINT LeftFoot
            {
                OFFSET -0.000000 -39.155319 0.000000
                CHANNELS 3 Zrotation Xrotation Yrotation
                JOINT LeftToeBase
                {
                    OFFSET -0.000000 -6.618412 15.273261
                    CHANNELS 3 Zrotation Xrotation Yrotation
                    End Site
                    {
                        OFFSET -0.000000 0.000000 4.072869
                    }
                }
            }
        }
    }
    JOINT RightUpLeg
    {
        OFFSET -10.182174 0.000000 0.000000
        CHANNELS 3 Zrotation Xrotation Yrotation
        JOINT RightLeg
        {
            OFFSET -0.000000 -49.689274 0.000000
            CHANNELS 3 Zrotation Xrotation Yrotation
            JOINT RightFoot
            {
                OFFSET -0.000000 -39.155319 0.000000
                CHANNELS 3 Zrotation Xrotation Yrotation
                JOINT RightToeBase
                {
                    OFFSET -0.000000 -6.618412 15.273261
                    CHANNELS 3 Zrotation Xrotation Yrotation
                    End Site
                    {
                        OFFSET -0.000000 0.000000 4.072869
                    }
                }
            }
        }
    }
}
MOTION
Frames:    7
Frame Time:    0.008333
23.908550    98.175179    9.567047    1.122705    0.533172    94.857376    -1.381002    -1.924026    0.404428    3.378678    2.311900    0.359554    -0.234806    10.453515    0.316576    5.121771    -7.879310    1.416594    14.633105    -2.960972    -16.395498    -14.852255    -6.337569    8.690388    5.955490    -8.147475    -3.659050    -1.079444    -7.984569    2.744423    -18.774902    2.669429    -22.553041    22.819397    -4.482863    4.701934    -3.137025    -2.445964    3.026328    -6.733216    -2.513549    2.558311    3.257996    7.766726    -6.969303    -5.652535    -1.811063    -3.081576    0.150153    -2.807918    12.642345    0.000000    0.000000    0.000000    -5.034829    3.339953    -6.336208    4.968274    5.576973    -1.338893    2.664406    -3.708291    3.248848    0.000000    0.000000    0.000000    
23.893946    98.170296    9.609921    1.097468    0.512087    94.849045    -1.397010    -1.935320    0.399536    3.370020    2.333204    0.354533    -0.488565    10.520057    0.317778    6.014008    -8.159881    1.633029    14.626996    -2.955823    -16.369925    -14.900544    -6.380469    8.716123    5.882242    -8.240079    -3.624538    -1.078844    -8.081243    2.740989    -18.707539    2.662841    -22.551592    22.923965    -4.431254    4.746540    -3.016796    -2.400390    2.966448    -6.980869    -2.486655    2.696160    3.299029    7.734438    -6.963994    -5.656315    -1.824974    -3.063390    0.202713    -2.797904    12.638948    0.000000    0.000000    0.000000    -4.987958    3.307555    -6.293373    4.968639    5.557877    -1.374482    2.621562    -3.716280    3.248949    0.000000    0.000000    0.000000    
23.877420    98.165855    9.647221    1.088855    0.489945    94.855911    -1.410579    -1.933929    0.393152    3.366384    2.378843    0.347235    -0.516500    10.393788    0.350522    6.519254    -8.145972    1.775913    14.634328    -2.975860    -16.330284    -14.984355    -6.374891    8.720609    5.848176    -8.374277    -3.583595    -1.071347    -8.217022    2.585822    -18.660213    2.676667    -22.557821    23.057518    -4.416106    4.791317    -2.966638    -2.387783    2.950918    -6.918556    -2.467050    2.576633    3.343329    7.702181    -7.007227    -5.657158    -1.809224    -3.057471    0.215108    -2.817293    12.664132    0.000000    0.000000    0.000000    -4.942305    3.294155    -6.283607    4.963947    5.545294    -1.335999    2.609803    -3.723068    3.202502    0.000000    0.000000    0.000000    
23.865803    98.163673    9.683016    1.093159    0.474434    94.847061    -1.430397    -1.915838    0.399331    3.360944    2.401417    0.352817    -0.202480    10.340572    0.395520    6.502650    -8.244971    1.807645    14.618452    -2.975800    -16.327230    -15.020265    -6.442832    8.739824    5.842285    -8.494267    -3.572317    -1.042943    -8.337603    2.632372    -18.595293    2.685375    -22.568834    23.170286    -4.347895    4.827344    -2.973934    -2.341750    2.915112    -6.802924    -2.421878    2.622050    3.376144    7.709058    -7.015188    -5.648712    -1.840127    -3.046385    0.218198    -2.798763    12.668454    0.000000    0.000000    0.000000    -4.905574    3.292938    -6.260224    4.963816    5.532860    -1.319186    2.580633    -3.728086    3.182460    0.000000    0.000000    0.000000    
23.855066    98.162109    9.720060    1.103565    0.461709    94.835762    -1.451006    -1.901281    0.394639    3.372761    2.454990    0.346617    -0.253974    10.177847    0.476750    7.051882    -8.230394    2.011612    14.569745    -2.996651    -16.280695    -15.027603    -6.474996    8.764888    5.818238    -8.604790    -3.569107    -1.208447    -8.452457    2.596107    -18.598068    2.697786    -22.577692    23.309654    -4.332682    4.874236    -2.922045    -2.265366    2.889272    -6.837086    -2.350150    2.654115    3.408005    7.715712    -7.023411    -5.648646    -1.850402    -3.037893    0.229140    -2.797478    12.687500    0.000000    0.000000    0.000000    -4.870082    3.291942    -6.240023    4.962406    5.539911    -1.317299    2.556101    -3.739112    3.177307    0.000000    0.000000    0.000000    
23.843826    98.160378    9.760085    1.108539    0.442035    94.822426    -1.467465    -1.890179    0.402379    3.364838    2.506602    0.352996    -0.193561    10.378177    0.510286    7.510300    -8.792845    2.176147    14.564897    -3.023992    -16.249416    -15.068501    -6.540240    8.781197    5.861628    -8.671961    -3.615192    -1.403038    -8.520489    2.608611    -18.568415    2.709563    -22.575710    23.426035    -4.279958    4.881306    -2.864728    -2.308606    2.914254    -6.918840    -2.389841    2.550229    3.448231    7.715664    -7.026737    -5.647200    -1.861702    -3.031196    0.236271    -2.791702    12.705606    0.000000    0.000000    0.000000    -4.828395    3.289212    -6.210744    4.963333    5.529882    -1.285705    2.537525    -3.739731    3.137772    0.000000    0.000000    0.000000    
23.830265    98.159630    9.800579    1.111240    0.424877    94.808105    -1.500956    -1.878498    0.406769    3.389464    2.556939    0.355854    -0.325752    10.232360    0.549669    8.284172    -8.794182    2.393730    14.534464    -3.035225    -16.215517    -15.105828    -6.535696    8.801114    5.901487    -8.755507    -3.663541    -1.481084    -8.602444    2.634335    -18.563210    2.719934    -22.584644    23.532984    -4.220381    4.908255    -2.866815    -2.278559    2.888412    -6.687872    -2.363427    2.690336    3.484827    7.704042    -7.015378    -5.650760    -1.849811    -3.006794    0.264837    -2.801403    12.694544    0.000000    0.000000    0.000000    -4.789251    3.278029    -6.172782    4.971604    5.567651    -1.292100    2.493464    -3.779774    3.105506    0.000000    0.000000    0.000000    
